PathFileType	4	(X/Y/Z)	Patient4_TMGait_0pt7_02_right_28.trc.trc
DataRate	CameraRate	NumFrames	NumMarkers	Units	OrigDataRate	OrigDataStartFrame	OrigNumFrames
85.889570552147	85.889570552147	6	33	mm	85.889570552147	1	       141
Frame#	Time	Sacral			L.Shoulder			Chest			R.Shoulder			Neck			R.ASIS			L.ASIS			R.Thigh.Superior			R.Thigh.Lateral			R.Thigh.Inferior			R.Patella			L.Thigh.Superior			L.Thigh.Lateral			L.Thigh.Inferior			L.Patella			L.Shank.Superior			L.Shank.Lateral			L.Shank.Inferior			R.Shank.Superior			R.Shank.Lateral			R.Shank.Inferior			R.Heel			R.Midfoot.Superior			R.Midfoot.Lateral			R.Toe			L.Heel			L.Midfoot.Lateral			L.Midfoot.Superior			L.Toe			L.Elbow			L.Wrist			R.Elbow			R.Wrist			
		X1	Y1	Z1	X2	Y2	Z2	X3	Y3	Z3	X4	Y4	Z4	X5	Y5	Z5	X6	Y6	Z6	X7	Y7	Z7	X8	Y8	Z8	X9	Y9	Z9	X10	Y10	Z10	X11	Y11	Z11	X12	Y12	Z12	X13	Y13	Z13	X14	Y14	Z14	X15	Y15	Z15	X16	Y16	Z16	X17	Y17	Z17	X18	Y18	Z18	X19	Y19	Z19	X20	Y20	Z20	X21	Y21	Z21	X22	Y22	Z22	X23	Y23	Z23	X24	Y24	Z24	X25	Y25	Z25	X26	Y26	Z26	X27	Y27	Z27	X28	Y28	Z28	X29	Y29	Z29	X30	Y30	Z30	X31	Y31	Z31	X32	Y32	Z32	X33	Y33	Z33	

1	31.360000000000	800.503070820855	1009.991461555072	441.880005520059	989.900863781876	1433.483308716034	261.155100495367	1095.076286811152	1362.677457652965	422.207907831555	1014.080892132850	1441.322658715963	595.590373626663	995.593543980742	1494.694448740962	415.240476566586	1023.985712928371	945.667152996138	562.058245254205	1018.316543937490	962.371760424924	288.442170899915	1110.578932102121	780.318762710414	535.685622848918	1074.936023237868	660.113589049313	612.964290478779	1167.522297082579	622.941945711672	535.498466541327	1190.406732942480	508.679053502041	559.392184236364	1069.908587941441	752.439678351432	318.033759048537	980.926985323909	636.806840214404	259.662234015202	1064.213106130363	558.507783184407	324.975420311028	1064.330035429595	488.426037026650	335.807836581991	1034.593606468686	416.452584592199	326.042957335363	942.764331731026	305.097103371408	272.260666466867	986.697274706528	192.279251028929	345.009297463908	1109.411804408528	434.722916045843	568.344912361525	984.741357696500	403.820836533989	628.247849473435	965.820145549010	293.866260981843	582.667818003803	765.257326117612	251.891794267312	552.957745994337	922.518139005367	167.825463661567	596.214675190405	813.032667216625	182.140786614167	626.148538960850	969.191451429385	46.446326564702	620.531351261724	854.141568711201	38.312963696444	382.776296544681	928.956159700248	35.343512953943	302.463070803028	1011.419069841609	96.270422567915	331.145140556284	1140.771534782939	43.875120677357	303.429099935589	991.765896887388	1084.665627130016	131.024933794126	1151.848293061969	876.239463784904	140.799908775089	1023.262161832338	1096.087319331345	714.928147203231	1258.982259626862	1069.533993848503	622.612550293464	
2	31.371642857143	799.051298841719	1010.302355834330	440.158043741648	991.843687934698	1433.734013485956	260.494297215757	1094.684463117040	1362.666668291836	422.834083091861	1011.777102671647	1441.659142423554	595.097682582908	995.600554529119	1494.958283069674	414.503301994166	1021.653596449420	946.434459467257	562.629495658178	1017.841312020113	962.389036699737	288.796094057501	1111.051900037828	785.367420691878	535.923103806264	1078.440999333693	664.361683672997	613.312055093591	1171.792451747872	629.313869856848	535.903191854804	1197.547210478712	516.224318766458	560.033331175542	1066.544040980455	751.397083341940	319.180253760463	976.661573160448	636.851049090540	259.378949605320	1058.089471085085	557.509620994690	325.353279260482	1057.073225738581	487.578461591777	336.128817409329	1027.363892223817	415.945742822512	326.121582905185	935.279337440351	304.991441199542	272.092221479838	978.421384499082	192.042624634394	345.074185004176	1120.046219793301	439.687207682415	568.937778374314	997.347219906384	402.818865610887	628.451590763066	983.938282720145	292.293575042907	583.055405687096	786.243491016974	240.091157662418	553.195916237259	947.361592795559	165.297777985110	597.004184947678	837.385216691935	173.258658876500	626.358901412522	1000.109773597463	46.648574087085	621.131297464447	845.469173548100	38.301870046750	382.767060650994	920.310819639600	35.316266998569	302.460605983916	1002.791481393222	96.247906671801	331.145897376731	1132.163555038172	43.796523252256	303.439920175589	1001.669325240531	1087.235913994091	127.243082127452	1172.446036148079	889.494118983833	140.469086479304	1013.590727154767	1095.975531232762	713.984623647972	1245.988715944501	1045.213971280270	629.672176944299	
3	31.383285714286	797.641609942164	1010.608318833304	438.483671615893	993.783722301417	1433.970144349337	259.864328288221	1094.314720607348	1362.647568960266	423.467872821118	1009.513381782531	1441.977989105420	594.615167387432	995.622183806134	1495.207744361469	413.795341578410	1019.360740884166	947.185516858422	563.197585215687	1017.451744691128	962.436368854980	289.160537341728	1111.468668202350	790.279003897193	536.194178465382	1081.802183095308	668.487611455795	613.660331242553	1175.876863522494	635.504629762823	536.305501711850	1204.423104310507	523.611299759602	560.671143878969	1063.238803109592	750.356006366724	320.317822526449	972.457731061230	636.886123812056	259.110854697888	1052.043324825511	556.516719407424	325.727457114974	1049.909194843133	486.744215841629	336.441732930023	1020.229323815059	415.444601202250	326.199336836771	927.891895706051	304.882563405619	271.929649522726	970.254603747878	191.806980764092	345.137395758940	1130.453900279910	444.534156455263	569.526412535119	1009.841830974651	401.681219747143	628.720053121073	1001.966726084599	290.644043282478	583.485664596403	807.251729800187	228.202643682525	553.552921807327	972.157724038241	162.712210567601	597.819501070129	861.780547897274	164.322830295116	626.661017860733	1030.990209288854	46.879133659388	621.725929927247	836.906391357111	38.292039303325	382.752284288517	911.771122958871	35.289704933168	302.458175685251	994.270682617435	96.223990356586	331.150129869045	1123.658492776822	43.714336186260	303.452236482735	1011.398401231863	1089.804791851654	123.545433645465	1192.630676973288	902.734178805105	140.219181465024	1004.205931861678	1095.858287012914	713.131251368544	1232.731245192298	1021.156644263818	636.745387602392	
4	31.394928571429	796.325830423270	1010.890175925070	436.901037398383	995.726027142413	1434.168345628689	259.306874197773	1093.995595444331	1362.597881439794	424.127310841892	1007.339717282404	1442.247461142274	594.165710419763	995.681910210756	1495.416732202146	413.155637721152	1017.158547503780	947.890511970341	563.771048922348	1017.226394737972	962.522913339005	289.548562675648	1111.759761737444	794.868575037304	536.536810999530	1084.843914111607	672.325657060855	614.029466917336	1179.557910655011	641.280271168887	536.718364432283	1210.748091774518	530.658976147215	561.307721274126	1060.030140048785	749.301718738729	321.436074003896	968.333624468561	636.903432732488	258.870446359885	1046.092119847884	555.524475781464	326.089274966143	1042.862057607441	485.929271973310	336.733113009157	1013.211340594042	414.951316999522	326.271514109301	920.620502422411	304.768954802824	271.776804350049	962.223406939439	191.572235858522	345.195945121844	1140.423645703895	449.136342864247	570.119904922837	1022.195355027190	400.247113454078	629.137258596319	1019.937371914457	288.855815379695	584.013271236675	828.551909510985	216.089843725338	554.161427858607	997.044305921861	160.076322536183	598.694278271063	886.504732027561	155.296982058262	627.157453121170	1061.996327972850	47.327708955116	622.317561405410	828.475235296188	38.286908368972	382.729029928628	903.355967526433	35.265181453216	302.456322104887	985.876758928149	96.197418022342	331.160122789822	1115.273474391762	43.625369908543	303.466683947024	1020.844668541672	1092.391381166956	120.004469944407	1212.070780654300	916.078191959693	140.157540433836	995.315013744935	1095.725232211314	712.454169052866	1218.732973625565	997.617978612384	643.898359426345	
5	31.406571428571	795.147856098267	1011.128457376930	435.446442088037	997.673733932521	1434.306338904791	258.858749226945	1093.752389178153	1362.495030955768	424.828717985279	1005.302991237447	1442.437024289568	593.773174055286	995.801676944923	1495.560056088796	412.618232169189	1015.094462469267	948.520549077173	564.362182444864	1017.223306941735	962.648667103784	289.974737819146	1111.864908022277	798.968621975196	536.976609700623	1087.411791569101	675.723325541243	614.436467823329	1182.646265522152	646.428478449489	537.152754564779	1216.284354160072	537.206824728952	561.941039192790	1056.945552158052	748.217963730894	322.523207012391	964.293750933956	636.895946492455	258.667401638516	1040.236212540777	554.526456521215	326.430154222983	1035.935340784020	485.136802925209	336.991674412412	1006.307894187763	414.465640210921	326.335016428846	913.459838775402	304.649899077547	271.637057721643	954.327020254491	191.337805708180	345.248137958774	1149.785264266957	453.385087346510	570.725031515420	1034.407955953752	398.388283862245	629.778369894381	1037.902085161539	286.895431863794	584.684794024003	850.429448730129	203.654382084593	555.138932468833	1022.172428753670	157.435934318593	599.653007552237	911.850553515856	146.186926012595	627.938047297744	1093.297019404431	48.217651792693	622.904288230403	820.169861634351	38.290092814841	382.695090892172	895.057158773520	35.243991451119	302.455745515873	977.602105361221	96.166710447192	331.177518858547	1106.998918652601	43.527051161766	303.483668566663	1029.939956979160	1095.013218956868	116.676435602087	1230.517305369316	929.650550529157	140.377570136736	987.063290180482	1095.565348031128	712.018975190403	1203.542319038573	974.819008344757	651.207565257130	
6	31.418214285714	794.143531983790	1011.302760342723	434.147915421723	999.624148915499	1434.364300096360	258.549720184359	1093.605302615585	1362.317681655358	425.584369702802	1003.446965202841	1442.519171411338	593.462230028677	995.999811478234	1495.614961583087	412.210355361558	1013.212508517723	949.047644954298	564.984886702541	1017.472476554653	962.801455724928	290.451996360194	1111.739674903210	802.435479427996	537.524518485519	1089.382737307762	678.547933424575	614.894996829038	1184.994388893600	650.767777757273	537.618312821265	1220.856220204421	543.116889059959	562.565670075451	1054.004932933922	747.090164380237	323.565484949064	960.333560891538	636.859125946898	258.507264575815	1034.466619365186	553.516539779467	326.741567722963	1029.120823901658	484.367678548835	337.208700717947	999.502837092105	413.985843357503	326.387949450534	906.390417938585	304.525998919331	271.512860081380	946.547269480967	191.102934785384	345.293581311268	1158.409322135578	457.192131234101	571.346438573523	1046.486171926435	396.024411950479	630.699457303797	1055.894026854261	284.765105766563	585.532164899262	873.118476955222	190.869090204265	556.570044420523	1047.645687705072	154.879395105887	600.708522163654	938.042244317451	137.058225797658	629.066303218046	1124.989578635080	49.785716779927	623.480607286206	811.967977606358	38.304948250118	382.649782743715	886.851336319083	35.227334097797	302.457190340387	969.423435671391	96.130405354511	331.202968501825	1098.810680114974	43.417991802603	303.503256337984	1038.648829287020	1097.680188448067	113.601530787853	1247.797315019434	943.547809772863	140.949757263378	979.527428612681	1095.368977396062	711.864029363829	1186.805752640938	952.973644551936	658.735462741401	
